<svg 
fill="none" 
stroke="currentColor"
xmlns="http://www.w3.org/2000/svg" 
viewBox="0 0 50 50" 
width="150px" 
height="150px"
>
  <path d="M 13.792969 1 C 11.146549 1 7.8950197 2.5922298 5.1132812 4.8691406 C 2.3315428 7.1460514 5.9211895e-16 10.165852 0 13.443359 C 0 17.323902 1.6428271 20.036982 3.5664062 21.685547 C 5.4899854 23.334111 7.5552554 24 8.953125 24 C 9.9660199 24 10.988149 23.85093 12 23.601562 L 12 34.835938 C 12 35.399284 12.433769 36.106201 13.158203 36.462891 C 13.882638 36.819581 14.882123 37 16.5 37 C 18.118528 37 19.119899 36.816492 19.84375 36.458984 C 20.567601 36.101477 21 35.401994 21 34.835938 L 21 18.060547 C 22.806781 16.024149 24 13.657643 24 11.238281 C 24 7.7413976 22.576185 5.1029687 20.580078 3.4277344 C 18.583971 1.7525 16.070843 1 13.792969 1 z M 13.792969 3 C 15.621095 3 17.712076 3.6322187 19.292969 4.9589844 C 20.873862 6.28575 22 8.2671655 22 11.238281 C 22 13.536207 20.308602 16.293436 17.755859 18.417969 C 16.290041 19.637904 14.561765 20.625453 12.806641 21.255859 A 1.0001 1.0001 0 0 0 12.507812 21.365234 A 1.0001 1.0001 0 0 0 12.503906 21.369141 C 11.302065 21.770732 10.093109 22 8.953125 22 C 8.3269946 22 6.4165615 21.494154 4.8691406 20.167969 C 3.3217198 18.841783 2 16.775817 2 13.443359 C 2 11.174867 3.8658479 8.4746048 6.3808594 6.4160156 C 8.8958709 4.3574264 12.040389 3 13.792969 3 z M 16.925781 6.7558594 C 16.4769 6.7601602 16.024453 6.8938438 15.626953 7.1679688 L 13.087891 8.9199219 C 12.028891 9.6509219 11.761188 11.100156 12.492188 12.160156 L 12.550781 12.244141 C 13.281781 13.304141 14.732969 13.570844 15.792969 12.839844 L 18.332031 11.089844 C 19.391031 10.358844 19.658734 8.9076562 18.927734 7.8476562 L 18.869141 7.7636719 C 18.412266 7.1017969 17.673916 6.7486914 16.925781 6.7558594 z M 36.207031 13 C 33.929157 13 31.416029 13.7525 29.419922 15.427734 C 27.423815 17.102969 26 19.741397 26 23.238281 C 26 25.657643 27.193219 28.024149 29 30.060547 L 29 46.835938 C 29 47.401994 29.432399 48.101477 30.15625 48.458984 C 30.880101 48.816492 31.881472 49 33.5 49 C 35.117877 49 36.117362 48.819581 36.841797 48.462891 C 37.566231 48.106201 38 47.399283 38 46.835938 L 38 35.601562 C 39.011851 35.85093 40.03398 36 41.046875 36 C 42.444745 36 44.510015 35.334111 46.433594 33.685547 C 48.357173 32.036982 50 29.323902 50 25.443359 C 50 22.165852 47.668457 19.146051 44.886719 16.869141 C 42.10498 14.59223 38.853451 13 36.207031 13 z M 4.8105469 13.138672 A 3.673 1.735 56.574 0 0 4.2089844 13.28125 A 3.673 1.735 56.574 1 0 8.2558594 19.412109 A 3.673 1.735 56.574 0 0 4.8105469 13.138672 z M 36.207031 15 C 37.959611 15 41.104129 16.357426 43.619141 18.416016 C 46.134152 20.474605 48 23.174867 48 25.443359 C 48 28.775817 46.67828 30.841783 45.130859 32.167969 C 43.583439 33.494154 41.673005 34 41.046875 34 C 39.9056 34 38.695375 33.769635 37.492188 33.367188 A 1.0001 1.0001 0 0 0 37.179688 33.251953 C 35.429145 32.621278 33.70625 31.634817 32.244141 30.417969 C 29.691398 28.293436 28 25.536207 28 23.238281 C 28 20.267165 29.126138 18.28575 30.707031 16.958984 C 32.287924 15.632219 34.378905 15 36.207031 15 z M 33.074219 18.755859 C 32.326084 18.748691 31.587734 19.101797 31.130859 19.763672 L 31.072266 19.847656 C 30.341266 20.907656 30.608969 22.358844 31.667969 23.089844 L 34.207031 24.839844 C 35.267031 25.570844 36.718219 25.304141 37.449219 24.244141 L 37.507812 24.160156 C 38.238813 23.100156 37.971109 21.650922 36.912109 20.919922 L 34.373047 19.167969 C 33.975547 18.893844 33.5231 18.76016 33.074219 18.755859 z M 19 19.984375 L 19 33.761719 C 17.642411 34.131028 15.362209 34.13055 14 33.757812 L 14 22.962891 C 15.797947 22.250573 17.510272 21.218088 19 19.984375 z M 45.212891 25.132812 A 1.735 3.673 33.429 0 0 42.318359 27.386719 A 1.735 3.673 33.429 1 0 45.214844 29.298828 A 1.735 3.673 33.429 0 0 45.212891 25.132812 z M 31 31.984375 C 32.489728 33.218088 34.202053 34.250573 36 34.962891 L 36 45.757812 C 34.637791 46.13055 32.357589 46.131028 31 45.761719 L 31 31.984375 z"/>
</svg>