<svg 
  fill="none" 
  stroke="currentColor"
  xmlns="http://www.w3.org/2000/svg"  
  viewBox="0 0 50 50" 
  width="150px" 
  height="150px"
  >
    <path d="M 18.5 1 C 16.863281 1 15.421875 2.171875 14.78125 3.8125 L 14.3125 5 L 11 5 C 11 4.449219 10.550781 4 10 4 L 5 4 C 4.449219 4 4 4.449219 4 5 L 4 5.4375 C 1.695313 6.28125 0 8.421875 0 11 L 0 25 C 0 28.296875 2.703125 31 6 31 L 11 31 L 11 43 C 11 46.296875 13.703125 49 17 49 L 44 49 C 47.296875 49 50 46.296875 50 43 L 50 29 C 50 27.230469 48.984375 25.730469 47.65625 24.6875 C 46.328125 23.644531 44.648438 23 43 23 L 42.6875 23 L 42.21875 21.8125 C 41.648438 20.34375 40.421875 19.277344 39 19.0625 L 39 11 C 39 9.230469 37.984375 7.730469 36.65625 6.6875 C 35.328125 5.644531 33.648438 5 32 5 L 31.6875 5 L 31.21875 3.8125 C 30.578125 2.171875 29.136719 1 27.5 1 Z M 18.5 3 L 27.5 3 C 27.996094 3 29.019531 3.652344 29.375 4.5625 L 30.0625 6.375 C 30.214844 6.757813 30.589844 7.003906 31 7 L 32 7 C 33.101563 7 34.421875 7.480469 35.40625 8.25 C 36.390625 9.019531 37 10.019531 37 11 L 37 19 L 32.9375 19 C 32.972656 18.671875 33 18.339844 33 18 C 33 12.488281 28.511719 8 23 8 C 17.488281 8 13 12.488281 13 18 C 13 20.054688 13.621094 21.972656 14.6875 23.5625 C 12.542969 24.476563 11 26.539063 11 29 L 6 29 C 3.796875 29 2 27.203125 2 25 L 2 11 C 2 9.070313 3.371094 7.464844 5.1875 7.09375 C 5.664063 7.003906 6.007813 6.582031 6 6.09375 L 6 6 L 9 6 C 9 6.550781 9.449219 7 10 7 L 15 7 C 15.410156 7.003906 15.785156 6.757813 15.9375 6.375 L 16.625 4.5625 C 16.980469 3.652344 18 3 18.5 3 Z M 6.5 9 C 5.671875 9 5 9.671875 5 10.5 C 5 11.328125 5.671875 12 6.5 12 C 7.328125 12 8 11.328125 8 10.5 C 8 9.671875 7.328125 9 6.5 9 Z M 23 10 C 27.429688 10 31 13.570313 31 18 C 31 18.339844 30.976563 18.671875 30.9375 19 L 29.5 19 C 27.863281 19 26.421875 20.171875 25.78125 21.8125 L 25.3125 23 L 22 23 C 22 22.449219 21.550781 22 21 22 L 16.0625 22 C 15.382813 20.824219 15 19.457031 15 18 C 15 13.570313 18.570313 10 23 10 Z M 29.5 21 L 31.28125 21 C 31.574219 21.15625 31.925781 21.15625 32.21875 21 L 38.5 21 C 38.996094 21 40.019531 21.652344 40.375 22.5625 L 41.0625 24.375 C 41.214844 24.757813 41.589844 25.003906 42 25 L 43 25 C 44.101563 25 45.421875 25.480469 46.40625 26.25 C 47.390625 27.019531 48 28.019531 48 29 L 48 43 C 48 45.203125 46.203125 47 44 47 L 17 47 C 14.796875 47 13 45.203125 13 43 L 13 29 C 13 27.070313 14.371094 25.464844 16.1875 25.09375 C 16.664063 25.003906 17.007813 24.582031 17 24.09375 L 17 24 L 20 24 C 20 24.550781 20.449219 25 21 25 L 26 25 C 26.410156 25.003906 26.785156 24.757813 26.9375 24.375 L 27.625 22.5625 C 27.980469 21.652344 29 21 29.5 21 Z M 34 26 C 28.488281 26 24 30.488281 24 36 C 24 41.511719 28.488281 46 34 46 C 39.511719 46 44 41.511719 44 36 C 44 30.488281 39.511719 26 34 26 Z M 17.5 27 C 16.671875 27 16 27.671875 16 28.5 C 16 29.328125 16.671875 30 17.5 30 C 18.328125 30 19 29.328125 19 28.5 C 19 27.671875 18.328125 27 17.5 27 Z M 34 28 C 38.429688 28 42 31.570313 42 36 C 42 40.429688 38.429688 44 34 44 C 29.570313 44 26 40.429688 26 36 C 26 31.570313 29.570313 28 34 28 Z"/>
  </svg>