<svg 
  fill="none"
  stroke="currentcolor" 
  xmlns="http://www.w3.org/2000/svg"  
  viewBox="0 0 30 30" 
  width="120px" 
  height="120px">
    <path d="M 15 4 C 8.3845336 4 3 9.3845336 3 16 L 3 21 A 1.0001 1.0001 0 1 0 5 21 L 5 16 C 5 10.465466 9.4654664 6 15 6 C 20.534534 6 25 10.465466 25 16 L 25 21 A 1.0001 1.0001 0 1 0 27 21 L 27 16 C 27 9.3845336 21.615466 4 15 4 z M 8 17 C 7.448 17 7 17.448 7 18 L 7 25 C 7 25.552 7.448 26 8 26 L 9 26 C 10.105 26 11 25.105 11 24 L 11 19 C 11 17.895 10.105 17 9 17 L 8 17 z M 21 17 C 19.895 17 19 17.895 19 19 L 19 24 C 19 25.105 19.895 26 21 26 L 22 26 C 22.552 26 23 25.552 23 25 L 23 18 C 23 17.448 22.552 17 22 17 L 21 17 z"/>
</svg>