<svg 
  fill="none"
  stroke="currentColor" 
  xmlns="http://www.w3.org/2000/svg"  
  viewBox="0 0 32 32" 
  width="128px" 
  height="128px"
  >
  <path d="M 8 4 C 7.476563 4 6.941406 4.183594 6.5625 4.5625 C 6.183594 4.941406 6 5.476563 6 6 L 6 25.5 C 6 26.015625 6.316406 26.363281 6.5625 26.5625 C 6.808594 26.761719 7.0625 26.890625 7.34375 27 C 7.910156 27.222656 8.617188 27.386719 9.46875 27.53125 C 11.175781 27.820313 13.453125 28 16 28 C 18.546875 28 20.824219 27.820313 22.53125 27.53125 C 23.382813 27.386719 24.089844 27.222656 24.65625 27 C 24.9375 26.890625 25.191406 26.761719 25.4375 26.5625 C 25.683594 26.363281 26 26.015625 26 25.5 L 26 6 C 26 5.476563 25.816406 4.941406 25.4375 4.5625 C 25.058594 4.183594 24.523438 4 24 4 Z M 8 6 L 24 6 L 24 25.125 C 23.96875 25.140625 23.976563 25.140625 23.9375 25.15625 C 23.597656 25.289063 22.992188 25.433594 22.21875 25.5625 C 20.675781 25.824219 18.453125 26 16 26 C 13.546875 26 11.324219 25.824219 9.78125 25.5625 C 9.007813 25.433594 8.402344 25.289063 8.0625 25.15625 C 8.023438 25.140625 8.03125 25.140625 8 25.125 Z M 11 11 L 11 13 L 21 13 L 21 11 Z M 11 15 L 11 17 L 18 17 L 18 15 Z M 14 23 L 14 25 L 18 25 L 18 23 Z"/>
</svg>