<svg 
  fill="noone"
  stroke="currentColor" 
  xmlns="http://www.w3.org/2000/svg"  
  viewBox="0 0 50 50"
  width="150px" 
  height="150px">
  <path d="M 7 10 C 5.3550302 10 4 11.35503 4 13 L 4 37 L 0 37 L 0 37.908203 C 0 38.542203 0.4483125 39.089844 1.0703125 39.214844 L 4.4453125 39.888672 C 4.8133125 39.962672 5.1904062 40 5.5664062 40 L 44.433594 40 C 44.809594 40 45.185688 39.962672 45.554688 39.888672 L 48.931641 39.214844 C 49.553641 39.090844 50.001953 38.543203 50.001953 37.908203 L 50.001953 37 L 46 37 L 46 13 C 46 11.35503 44.64497 10 43 10 L 7 10 z M 7 12 L 22 12 C 22 12.552 22.448 13 23 13 L 27 13 C 27.552 13 28 12.552 28 12 L 43 12 C 43.56503 12 44 12.43497 44 13 L 44 37 L 6 37 L 6 13 C 6 12.43497 6.4349698 12 7 12 z"/>
  </svg>