<svg 
  fill="none"
  stroke="currentColor" 
  xmlns="http://www.w3.org/2000/svg"  
  viewBox="0 0 50 50" 
  width="150px" 
  height="150px"
  >
  <path d="M 1 7 A 1.0001 1.0001 0 0 0 0 8 L 0 36 A 1.0001 1.0001 0 0 0 1 37 L 17 37 L 17 43 A 1.0001 1.0001 0 1 0 17 45 L 17.832031 45 A 1.0001 1.0001 0 0 0 18.158203 45 L 31.832031 45 A 1.0001 1.0001 0 0 0 32.158203 45 L 33 45 A 1.0001 1.0001 0 1 0 33 43 L 33 37 L 49 37 A 1.0001 1.0001 0 0 0 50 36 L 50 8 A 1.0001 1.0001 0 0 0 49 7 L 1 7 z M 2 9 L 48 9 L 48 35 L 32.167969 35 A 1.0001 1.0001 0 0 0 31.841797 35 L 18.167969 35 A 1.0001 1.0001 0 0 0 17.841797 35 L 2 35 L 2 9 z M 19 37 L 31 37 L 31 43 L 19 43 L 19 37 z"/>
</svg>