<svg 
  fill="none"
  stroke="currentColor" 
  xmlns="http://www.w3.org/2000/svg"  
  viewBox="0 0 24 24" 
  width="192px" 
  height="192px"
  >
  <path d="M 11.5 0 C 8.2488403 0 4.8731689 1.8985595 3.0625 4.7285156 C 2.4182739 5.2791748 2 6.0879517 2 7 L 2 17 C 2 17.912048 2.4182739 18.720825 3.0625 19.271484 C 4.8731689 22.10144 8.2488403 24 11.5 24 C 17.191406 24 22 18.504883 22 12 C 22 5.4951172 17.191406 0 11.5 0 z M 11.5 1 C 16.649414 1 21 6.0375977 21 12 C 21 17.962402 16.649414 23 11.5 23 C 9.0918579 23 6.6159057 21.827454 4.9003906 19.990234 C 4.9345093 19.991394 4.9656372 20 5 20 C 5.3634644 20 5.7066651 19.925537 6.0292969 19.806641 C 7.4008179 21.126099 9.5454102 22 11.5 22 C 16.02832 22 20 17.327148 20 12 C 20 6.6728516 16.02832 2 11.5 2 C 9.5454712 2 7.402771 2.8739624 6.03125 4.1933594 C 5.7085571 4.0744629 5.3634644 4 5 4 C 4.9656372 4 4.9345093 4.008606 4.9003906 4.0097656 C 6.6159057 2.1725464 9.0918579 1 11.5 1 z M 11.5 3 C 15.495117 3 19 7.2055664 19 12 C 19 16.794434 15.495117 21 11.5 21 C 9.9116211 21 8.1165161 20.310425 6.9257812 19.28125 C 7.5769043 18.73053 8 17.917664 8 17 L 8 7 C 8 6.0823364 7.5769042 5.2694703 6.9257812 4.71875 C 8.116516 3.6895752 9.9116211 3 11.5 3 z M 5 5 C 6.1025391 5 7 5.8969727 7 7 L 7 17 C 7 18.103027 6.1025391 19 5 19 C 3.8974609 19 3 18.103027 3 17 L 3 7 C 3 5.8969727 3.8974609 5 5 5 z M 5 7 C 4.4482422 7 4 7.4487305 4 8 C 4 8.5512695 4.4482422 9 5 9 C 5.5517578 9 6 8.5512695 6 8 C 6 7.4487305 5.5517578 7 5 7 z M 5 11 C 4.4482422 11 4 11.44873 4 12 L 4 15.5 C 4 16.05127 4.4482422 16.5 5 16.5 C 5.5517578 16.5 6 16.05127 6 15.5 L 6 12 C 6 11.44873 5.5517578 11 5 11 z M 5 11.5 L 5 12 L 4.9980469 12 L 5 11.5 z"/>
</svg>